<?xml version="1.0" encoding="iso-8859-1"?>
<!-- Uploaded to: SVG Repo, www.svgrepo.com, Generator: SVG Repo Mixer Tools -->
<svg version="1.1" id="Layer_1" xmlns="http://www.w3.org/2000/svg" xmlns:xlink="http://www.w3.org/1999/xlink" 
	 viewBox="0 0 508 508" xml:space="preserve">
<path style="fill:#676767;" d="M428,466c0,22-18,40-40,40H124c-22,0-40-18-40-40V46c0-22,18-40,40-40h264c22,0,40,18,40,40V466z"/>
<rect x="116" y="58" style="fill:#CDEEF9;" width="276" height="116"/>
<g>
	<rect x="116" y="214" style="fill:#E8E3E3;" width="68" height="64"/>
	<rect x="220" y="214" style="fill:#E8E3E3;" width="68" height="64"/>
	<rect x="324" y="214" style="fill:#E8E3E3;" width="68" height="64"/>
	<rect x="116" y="310" style="fill:#E8E3E3;" width="68" height="64"/>
	<rect x="220" y="310" style="fill:#E8E3E3;" width="68" height="64"/>
	<rect x="324" y="310" style="fill:#E8E3E3;" width="68" height="64"/>
	<rect x="116" y="406" style="fill:#E8E3E3;" width="68" height="64"/>
	<rect x="220" y="406" style="fill:#E8E3E3;" width="68" height="64"/>
	<rect x="324" y="406" style="fill:#E8E3E3;" width="68" height="64"/>
</g>
<path d="M386,508H122c-24.4,0-44-19.6-44-44V44c0-24.4,19.6-44,44-44h264c24.4,0,44,19.6,44,44v420C430,488.4,410.4,508,386,508z
	 M122,8c-20,0-36,16-36,36v420c0,20,16,36,36,36h264c20,0,36-16,36-36V44c0-20-16-36-36-36H122z"/>
<path d="M390,180H114c-2.4,0-4-1.6-4-4V60c0-2.4,1.6-4,4-4h276c2.4,0,4,1.6,4,4v116C394,178.4,392.4,180,390,180z M118,172h268V64
	H118V172z"/>
<path d="M182,284h-68c-2.4,0-4-1.6-4-4v-64c0-2.4,1.6-4,4-4h68c2.4,0,4,1.6,4,4v64C186,282.4,184.4,284,182,284z M118,276h60v-56
	h-60V276z"/>
<path d="M286,284h-68c-2.4,0-4-1.6-4-4v-64c0-2.4,1.6-4,4-4h68c2.4,0,4,1.6,4,4v64C290,282.4,288.4,284,286,284z M222,276h60v-56
	h-60V276z"/>
<path d="M390,284h-68c-2.4,0-4-1.6-4-4v-64c0-2.4,1.6-4,4-4h68c2.4,0,4,1.6,4,4v64C394,282.4,392.4,284,390,284z M326,276h60v-56
	h-60V276z"/>
<path d="M182,380h-68c-2.4,0-4-1.6-4-4v-64c0-2.4,1.6-4,4-4h68c2.4,0,4,1.6,4,4v64C186,378.4,184.4,380,182,380z M118,372h60v-56
	h-60V372z"/>
<path d="M286,380h-68c-2.4,0-4-1.6-4-4v-64c0-2.4,1.6-4,4-4h68c2.4,0,4,1.6,4,4v64C290,378.4,288.4,380,286,380z M222,372h60v-56
	h-60V372z"/>
<path d="M390,380h-68c-2.4,0-4-1.6-4-4v-64c0-2.4,1.6-4,4-4h68c2.4,0,4,1.6,4,4v64C394,378.4,392.4,380,390,380z M326,372h60v-56
	h-60V372z"/>
<path d="M182,476h-68c-2.4,0-4-1.6-4-4v-64c0-2.4,1.6-4,4-4h68c2.4,0,4,1.6,4,4v64C186,474.4,184.4,476,182,476z M118,468h60v-56
	h-60V468z"/>
<path d="M286,476h-68c-2.4,0-4-1.6-4-4v-64c0-2.4,1.6-4,4-4h68c2.4,0,4,1.6,4,4v64C290,474.4,288.4,476,286,476z M222,468h60v-56
	h-60V468z"/>
<path d="M390,476h-68c-2.4,0-4-1.6-4-4v-64c0-2.4,1.6-4,4-4h68c2.4,0,4,1.6,4,4v64C394,474.4,392.4,476,390,476z M326,468h60v-56
	h-60V468z"/>
<path d="M251.2,112.8c-1.2,0-2-0.4-2.8-1.2l-48.8-48.8c-1.6-1.6-1.6-4,0-5.6s4-1.6,5.6,0L254,106c1.6,1.6,1.6,4,0,5.6
	C253.2,112.4,252.4,112.8,251.2,112.8z"/>
<path d="M313.6,175.2c-1.2,0-2-0.4-2.8-1.2l-46-46c-1.6-1.6-1.6-4,0-5.6s4-1.6,5.6,0l46,46c1.6,1.6,1.6,4,0,5.6
	C315.6,174.8,314.8,175.2,313.6,175.2z"/>
</svg>